<?xml version="1.0" encoding="UTF-8"?>
<svg id="Layer_1" xmlns="http://www.w3.org/2000/svg" version="1.1" viewBox="0 0 512 512">
  <!-- Generator: Adobe Illustrator 30.3.0, SVG Export Plug-In . SVG Version: 2.1.3 Build 182)  -->
  <path d="M131.97,102.09h249.54c8.07-.06,14.52,1.05,20.91,6.42,1.98,1.98,3.51,4.08,4.77,6.57.2.36.4.72.6,1.08,2.43,5.1,2.13,10.32,2.1,15.84v249.54c.06,8.07-1.05,14.52-6.42,20.91-1.98,1.98-4.08,3.51-6.57,4.77-.36.2-.72.4-1.08.6-5.1,2.43-10.32,2.13-15.84,2.1h-249.54c-8.07.06-14.52-1.05-20.91-6.42-1.98-1.98-3.51-4.08-4.77-6.57-.2-.36-.4-.72-.6-1.08-2.43-5.1-2.13-10.32-2.1-15.84v-249.54c-.06-8.07,1.05-14.52,6.42-20.91,1.98-1.98,4.08-3.51,6.57-4.77.36-.21.72-.39,1.08-.6,5.1-2.43,10.32-2.13,15.84-2.1h0ZM178.17,184.11c-3.09,4.71-3.54,10.02-2.46,15.42,1.41,4.77,4.14,8.76,8.34,11.46,5.1,2.73,9.84,3.84,15.54,2.34,5.88-1.95,9.69-5.28,12.69-10.71,1.89-4.65,2.04-9.84.57-14.61-2.4-5.25-5.97-9.03-11.22-11.49-9.3-3.24-17.46.33-23.43,7.62l-.03-.03ZM269.25,237.99c-1.7,1.78-2.9,3.78-3.6,6h-1.2v-15h-31.8v107.4h33c0-4.38.03-8.73.06-13.23,0-2.79.03-5.55.06-8.34.03-4.41.06-8.82.09-13.23,0-3.57.03-7.11.06-10.68v-4.05c.04-12.86,1.94-21.55,5.7-26.07,4.8-4.26,9.84-5.07,16.08-4.95,4.08.33,7.53,1.53,10.56,4.35,4.2,5.34,4.62,11.79,4.68,18.3v1.89c0,2.07.03,4.14.06,6.18,0,1.44,0,2.88.03,4.29.03,3.78.06,7.53.09,11.31.03,4.53.09,9.06.12,13.59.06,6.87.12,13.74.18,20.61h33c.04-8.52.07-17.04.09-25.56,0-4.59,0-9.15.06-13.74,0-4.02.03-8.04.03-12.06v-4.56c.09-15.69-.27-32.73-11.58-44.94-8.97-8.31-20.91-9.42-32.58-9.03-9.21.6-16.92,4.98-23.22,11.52h.03ZM178.05,228.99v107.4h33v-107.4h-33Z"/>
</svg>