<?xml version="1.0" encoding="UTF-8"?>
<svg id="Layer_1" xmlns="http://www.w3.org/2000/svg" version="1.1" viewBox="0 0 512 512">
  <!-- Generator: Adobe Illustrator 30.3.0, SVG Export Plug-In . SVG Version: 2.1.3 Build 182)  -->
  <path d="M214.64,204.7c.37,0,.74,0,1.11,0,1.02,0,2.03,0,3.05,0,1.1,0,2.2,0,3.29,0,2.15,0,4.3,0,6.45,0,1.75,0,3.5,0,5.24,0,.25,0,.5,0,.75,0,.51,0,1.01,0,1.52,0,3.39,0,6.79,0,10.18,0q.2,0,.4,0c1.08,0,2.15,0,3.23,0,4.2,0,8.4,0,12.6,0,4.72,0,9.44,0,14.17,0,.5,0,1.01,0,1.51,0q.37,0,.75,0c1.74,0,3.49,0,5.23,0,2.13,0,4.25,0,6.38,0,1.09,0,2.17,0,3.26,0,.99,0,1.99,0,2.98,0,.36,0,.72,0,1.08,0,2.69-.02,4.84.35,6.97,2.14.66.66,1.17,1.36,1.59,2.19q.1.18.2.36c.81,1.7.71,3.44.7,5.28,0,.37,0,.74,0,1.11,0,1.02,0,2.03,0,3.05,0,1.1,0,2.2,0,3.29,0,2.15,0,4.3,0,6.45,0,1.75,0,3.5,0,5.24,0,.25,0,.5,0,.75,0,.51,0,1.01,0,1.52,0,3.39,0,6.79,0,10.18,0,.13,0,.27,0,.4,0,1.08,0,2.15,0,3.23,0,4.2,0,8.4,0,12.6,0,4.72,0,9.44,0,14.17,0,.5,0,1.01,0,1.51,0,.25,0,.5,0,.75,0,1.74,0,3.49,0,5.23,0,2.13,0,4.25,0,6.38,0,1.09,0,2.17,0,3.26,0,.99,0,1.99,0,2.98,0,.36,0,.72,0,1.08.02,2.69-.35,4.84-2.14,6.97-.66.66-1.36,1.17-2.19,1.59q-.18.1-.36.2c-1.7.81-3.44.71-5.28.7-.37,0-.74,0-1.11,0-1.02,0-2.03,0-3.05,0-1.1,0-2.2,0-3.29,0-2.15,0-4.3,0-6.45,0-1.75,0-3.5,0-5.24,0-.25,0-.5,0-.75,0-.51,0-1.01,0-1.52,0-3.39,0-6.79,0-10.18,0-.13,0-.27,0-.4,0-1.08,0-2.15,0-3.23,0-4.2,0-8.4,0-12.6,0-4.72,0-9.44,0-14.17,0-.5,0-1.01,0-1.51,0-.25,0-.5,0-.75,0-1.74,0-3.49,0-5.23,0-2.13,0-4.25,0-6.38,0-1.09,0-2.17,0-3.26,0-.99,0-1.99,0-2.98,0-.36,0-.72,0-1.08,0-2.69.02-4.84-.35-6.97-2.14-.66-.66-1.17-1.36-1.59-2.19q-.1-.18-.2-.36c-.81-1.7-.71-3.44-.7-5.28,0-.37,0-.74,0-1.11,0-1.02,0-2.03,0-3.05,0-1.1,0-2.2,0-3.29,0-2.15,0-4.3,0-6.45,0-1.75,0-3.5,0-5.24,0-.25,0-.5,0-.75,0-.51,0-1.01,0-1.52,0-3.39,0-6.79,0-10.18q0-.2,0-.4c0-1.08,0-2.15,0-3.23,0-4.2,0-8.4,0-12.6,0-4.72,0-9.44,0-14.17,0-.5,0-1.01,0-1.51,0-.25,0-.5,0-.75,0-1.74,0-3.49,0-5.23,0-2.13,0-4.25,0-6.38,0-1.09,0-2.17,0-3.26,0-.99,0-1.99,0-2.98,0-.36,0-.72,0-1.08-.02-2.69.35-4.84,2.14-6.97.66-.66,1.36-1.17,2.19-1.59.12-.07.24-.13.36-.2,1.7-.81,3.44-.71,5.28-.7ZM230.04,232.04c-1.03,1.57-1.18,3.34-.82,5.14.47,1.59,1.38,2.92,2.78,3.82,1.7.91,3.28,1.28,5.18.78,1.96-.65,3.23-1.76,4.23-3.57.63-1.55.68-3.28.19-4.87-.8-1.75-1.99-3.01-3.74-3.83-3.1-1.08-5.82.11-7.81,2.54ZM260.4,250q-.85.89-1.2,2h-.4v-5h-10.6v35.8h11c0-1.46.01-2.91.02-4.41,0-.93.01-1.85.02-2.78.01-1.47.02-2.94.03-4.41,0-1.19.01-2.37.02-3.56,0-.45,0-.9,0-1.35q.02-6.43,1.9-8.69c1.6-1.42,3.28-1.69,5.36-1.65,1.36.11,2.51.51,3.52,1.45,1.4,1.78,1.54,3.93,1.56,6.1,0,.21,0,.42,0,.63,0,.69.01,1.38.02,2.06,0,.48,0,.96.01,1.43.01,1.26.02,2.51.03,3.77.01,1.51.03,3.02.04,4.53.02,2.29.04,4.58.06,6.87h11q.02-4.26.03-8.52c0-1.53,0-3.05.02-4.58,0-1.34.01-2.68.01-4.02,0-.51,0-1.02,0-1.52.03-5.23-.09-10.91-3.86-14.98-2.99-2.77-6.97-3.14-10.86-3.01-3.07.2-5.64,1.66-7.74,3.84ZM230,247v35.8h11v-35.8h-11Z"/>
</svg>