<?xml version="1.0" encoding="UTF-8"?>
<svg id="Layer_1" xmlns="http://www.w3.org/2000/svg" version="1.1" viewBox="0 0 512 512">
  <!-- Generator: Adobe Illustrator 30.3.0, SVG Export Plug-In . SVG Version: 2.1.3 Build 182)  -->
  <path d="M69.97,25.13h374.31c12.11-.09,21.78,1.58,31.37,9.63,2.97,2.97,5.27,6.12,7.15,9.86.3.54.6,1.08.9,1.62,3.64,7.65,3.19,15.48,3.15,23.76v374.31c.09,12.11-1.58,21.78-9.63,31.37-2.97,2.97-6.12,5.27-9.86,7.15-.54.3-1.08.6-1.62.9-7.65,3.64-15.48,3.19-23.76,3.15H67.67c-12.11.09-21.78-1.58-31.37-9.63-2.97-2.97-5.26-6.12-7.15-9.86-.3-.54-.6-1.08-.9-1.62-3.64-7.65-3.2-15.48-3.15-23.76V67.7c-.09-12.11,1.58-21.78,9.63-31.37,2.97-2.97,6.12-5.26,9.86-7.15.54-.32,1.08-.59,1.62-.9,7.65-3.64,15.48-3.2,23.76-3.15h0ZM139.27,148.16c-4.63,7.07-5.31,15.03-3.69,23.13,2.12,7.15,6.21,13.14,12.51,17.19,7.65,4.1,14.76,5.76,23.31,3.51,8.82-2.92,14.53-7.92,19.03-16.07,2.84-6.98,3.06-14.76.86-21.91-3.6-7.88-8.96-13.54-16.83-17.24-13.95-4.86-26.19.5-35.14,11.43l-.04-.04ZM275.89,228.98c-2.55,2.67-4.35,5.67-5.4,9h-1.8v-22.5h-47.7v161.1h49.5c0-6.57.05-13.1.09-19.85,0-4.18.05-8.33.09-12.51.05-6.62.09-13.23.13-19.85,0-5.36.05-10.66.09-16.02v-6.08c.06-19.29,2.91-32.32,8.55-39.11,7.2-6.39,14.76-7.61,24.12-7.42,6.12.49,11.3,2.3,15.84,6.53,6.3,8.01,6.93,17.68,7.02,27.45v2.84c0,3.11.05,6.21.09,9.27,0,2.16,0,4.32.05,6.43.05,5.67.09,11.3.13,16.96.05,6.8.13,13.59.18,20.38.09,10.31.18,20.61.27,30.91h49.5c.06-12.78.1-25.56.13-38.34,0-6.88,0-13.72.09-20.61,0-6.03.05-12.06.05-18.09v-6.84c.13-23.54-.4-49.1-17.37-67.41-13.45-12.47-31.37-14.13-48.87-13.54-13.82.9-25.38,7.47-34.83,17.28h.05ZM139.09,215.48v161.1h49.5v-161.1h-49.5Z"/>
</svg>